<?xml version="1.0" encoding="UTF-8" standalone="no"?>
<!DOCTYPE svg PUBLIC "-//W3C//DTD SVG 1.1//EN"
 "http://www.w3.org/Graphics/SVG/1.1/DTD/svg11.dtd">
<!-- Generated by graphviz version 14.1.3 (20260303.0454)
 -->
<!-- Title: proposal_erd Pages: 1 -->
<svg width="871pt" height="1183pt"
 viewBox="0.00 0.00 871.00 1183.00" xmlns="http://www.w3.org/2000/svg" xmlns:xlink="http://www.w3.org/1999/xlink">
<g id="graph0" class="graph" transform="scale(1 1) rotate(0) translate(25.2 1157.6)">
<title>proposal_erd</title>
<polygon fill="white" stroke="none" points="-25.2,25.2 -25.2,-1157.6 846.13,-1157.6 846.13,25.2 -25.2,25.2"/>
<text xml:space="preserve" text-anchor="middle" x="410.47" y="-1114" font-family="Arial" font-size="16.00">청약 의사결정 노트 · 1차 ERD 초안</text>
<text xml:space="preserve" text-anchor="middle" x="410.47" y="-1094.8" font-family="Arial" font-size="16.00">15개 테이블 / PK·FK 중심 / 실제 API 응답 검증 전</text>
<g id="clust1" class="cluster">
<title>cluster_supply</title>
<path fill="white" stroke="#c8d9ee" d="M20,-672C20,-672 584.62,-672 584.62,-672 590.62,-672 596.62,-678 596.62,-684 596.62,-684 596.62,-1066 596.62,-1066 596.62,-1072 590.62,-1078 584.62,-1078 584.62,-1078 20,-1078 20,-1078 14,-1078 8,-1072 8,-1066 8,-1066 8,-684 8,-684 8,-678 14,-672 20,-672"/>
<text xml:space="preserve" text-anchor="middle" x="302.31" y="-1059.6" font-family="Arial" font-size="16.00" fill="#24436b">공고 · 공급 · 접수 결과</text>
</g>
<g id="clust2" class="cluster">
<title>cluster_region</title>
<path fill="white" stroke="#b8ddd9" d="M217.4,-209C217.4,-209 572.4,-209 572.4,-209 578.4,-209 584.4,-215 584.4,-221 584.4,-221 584.4,-473 584.4,-473 584.4,-479 578.4,-485 572.4,-485 572.4,-485 217.4,-485 217.4,-485 211.4,-485 205.4,-479 205.4,-473 205.4,-473 205.4,-221 205.4,-221 205.4,-215 211.4,-209 217.4,-209"/>
<text xml:space="preserve" text-anchor="middle" x="394.9" y="-466.6" font-family="Arial" font-size="16.00" fill="#1f625a">지역 · 주소 · 매매 거래</text>
</g>
<g id="clust3" class="cluster">
<title>cluster_user</title>
<path fill="white" stroke="#c9d5f0" d="M44.46,-8C44.46,-8 555.58,-8 555.58,-8 561.58,-8 567.58,-14 567.58,-20 567.58,-20 567.58,-142 567.58,-142 567.58,-148 561.58,-154 555.58,-154 555.58,-154 44.46,-154 44.46,-154 38.46,-154 32.46,-148 32.46,-142 32.46,-142 32.46,-20 32.46,-20 32.46,-14 38.46,-8 44.46,-8"/>
<text xml:space="preserve" text-anchor="middle" x="300.02" y="-135.6" font-family="Arial" font-size="16.00" fill="#435887">회원 · 개인 기록</text>
</g>
<g id="clust4" class="cluster">
<title>cluster_comparison</title>
<path fill="white" stroke="#edd9af" d="M430.69,-493C430.69,-493 800.93,-493 800.93,-493 806.93,-493 812.93,-499 812.93,-505 812.93,-505 812.93,-652 812.93,-652 812.93,-658 806.93,-664 800.93,-664 800.93,-664 430.69,-664 430.69,-664 424.69,-664 418.69,-658 418.69,-652 418.69,-652 418.69,-505 418.69,-505 418.69,-499 424.69,-493 430.69,-493"/>
<text xml:space="preserve" text-anchor="middle" x="615.81" y="-645.6" font-family="Arial" font-size="16.00" fill="#886225">비교 조건 · 당시 근거</text>
</g>
<g id="clust5" class="cluster">
<title>cluster_ingestion</title>
<path fill="white" stroke="#dfd1e9" d="M21.86,-540C21.86,-540 352.4,-540 352.4,-540 358.4,-540 364.4,-546 364.4,-552 364.4,-552 364.4,-649 364.4,-649 364.4,-655 358.4,-661 352.4,-661 352.4,-661 21.86,-661 21.86,-661 15.86,-661 9.86,-655 9.86,-649 9.86,-649 9.86,-552 9.86,-552 9.86,-546 15.86,-540 21.86,-540"/>
<text xml:space="preserve" text-anchor="middle" x="187.13" y="-642.6" font-family="Arial" font-size="16.00" fill="#755182">수집 · 출처 추적</text>
</g>
<!-- announcement -->
<g id="node1" class="node">
<title>announcement</title>
<polygon fill="#e8f0fc" stroke="none" points="17,-731.6 17,-756.8 157.4,-756.8 157.4,-731.6 17,-731.6"/>
<text xml:space="preserve" text-anchor="start" x="32.8" y="-741.9" font-family="Arial" font-weight="bold" font-size="11.00">announcement · 공고</text>
<text xml:space="preserve" text-anchor="start" x="23" y="-714.6" font-family="Arial" font-size="11.00">PK &#160;id</text>
<text xml:space="preserve" text-anchor="start" x="23" y="-689.4" font-family="Arial" font-size="11.00">FK &#160;last_source_record_id</text>
<polygon fill="none" stroke="#4f75a8" points="16,-680.2 16,-757.8 158.4,-757.8 158.4,-680.2 16,-680.2"/>
</g>
<!-- unit_type -->
<g id="node2" class="node">
<title>unit_type</title>
<polygon fill="#e8f0fc" stroke="none" points="215.01,-756.2 215.01,-781.4 355.41,-781.4 355.41,-756.2 215.01,-756.2"/>
<text xml:space="preserve" text-anchor="start" x="240.9" y="-766.5" font-family="Arial" font-weight="bold" font-size="11.00">unit_type · 주택형</text>
<text xml:space="preserve" text-anchor="start" x="221.01" y="-739.2" font-family="Arial" font-size="11.00">PK &#160;id</text>
<text xml:space="preserve" text-anchor="start" x="221.01" y="-714" font-family="Arial" font-size="11.00">FK &#160;announcement_id</text>
<text xml:space="preserve" text-anchor="start" x="221.01" y="-688.8" font-family="Arial" font-size="11.00">FK &#160;last_source_record_id</text>
<polygon fill="none" stroke="#4f75a8" points="214.01,-679.6 214.01,-782.4 356.41,-782.4 356.41,-679.6 214.01,-679.6"/>
</g>
<!-- announcement&#45;&gt;unit_type -->
<g id="edge1" class="edge">
<title>announcement&#45;&gt;unit_type</title>
<path fill="none" stroke="#64748b" d="M158.13,-723.28C176.38,-724.4 196.05,-725.6 214.3,-726.72"/>
<text xml:space="preserve" text-anchor="middle" x="200.24" y="-716.38" font-family="Arial" font-size="9.00">0..N</text>
<text xml:space="preserve" text-anchor="middle" x="172.19" y="-728.22" font-family="Arial" font-size="9.00">1</text>
</g>
<!-- address_match -->
<g id="node7" class="node">
<title>address_match</title>
<polygon fill="#e7f5f0" stroke="none" points="427.99,-293.2 427.99,-318.4 572.65,-318.4 572.65,-293.2 427.99,-293.2"/>
<text xml:space="preserve" text-anchor="start" x="433.99" y="-303.5" font-family="Arial" font-weight="bold" font-size="11.00">address_match · 주소 매칭</text>
<text xml:space="preserve" text-anchor="start" x="433.99" y="-276.2" font-family="Arial" font-size="11.00">PK &#160;id</text>
<text xml:space="preserve" text-anchor="start" x="433.99" y="-251" font-family="Arial" font-size="11.00">FK &#160;announcement_id</text>
<text xml:space="preserve" text-anchor="start" x="433.99" y="-225.8" font-family="Arial" font-size="11.00">FK &#160;region_code (nullable)</text>
<polygon fill="none" stroke="#418b80" points="426.99,-216.6 426.99,-319.4 573.65,-319.4 573.65,-216.6 426.99,-216.6"/>
</g>
<!-- announcement&#45;&gt;address_match -->
<g id="edge6" class="edge">
<title>announcement&#45;&gt;address_match</title>
<path fill="none" stroke="#64748b" d="M140.32,-680.39C150.66,-672.73 158.4,-667 158.4,-667 158.4,-667 205.4,-305 205.4,-305 205.4,-305 340.01,-288.05 427.04,-277.1"/>
<text xml:space="preserve" text-anchor="middle" x="411.81" y="-269.5" font-family="Arial" font-size="9.00">0..N</text>
<text xml:space="preserve" text-anchor="middle" x="156" y="-674.49" font-family="Arial" font-size="9.00">1</text>
</g>
<!-- watchlist -->
<g id="node10" class="node">
<title>watchlist</title>
<polygon fill="#eef0fc" stroke="none" points="225.4,-92.2 225.4,-117.4 345.02,-117.4 345.02,-92.2 225.4,-92.2"/>
<text xml:space="preserve" text-anchor="start" x="235.7" y="-102.5" font-family="Arial" font-weight="bold" font-size="11.00">watchlist · 관심 공고</text>
<text xml:space="preserve" text-anchor="start" x="231.4" y="-75.2" font-family="Arial" font-size="11.00">PK &#160;id</text>
<text xml:space="preserve" text-anchor="start" x="231.4" y="-50" font-family="Arial" font-size="11.00">FK &#160;app_user_id</text>
<text xml:space="preserve" text-anchor="start" x="231.4" y="-24.8" font-family="Arial" font-size="11.00">FK &#160;announcement_id</text>
<polygon fill="none" stroke="#687cad" points="224.4,-15.6 224.4,-118.4 346.02,-118.4 346.02,-15.6 224.4,-15.6"/>
</g>
<!-- announcement&#45;&gt;watchlist -->
<g id="edge10" class="edge">
<title>announcement&#45;&gt;watchlist</title>
<path fill="none" stroke="#64748b" d="M140.32,-680.39C150.66,-672.73 158.4,-667 158.4,-667 158.4,-667 185.4,-322 185.4,-322 185.4,-322 205.4,-203 205.4,-203 205.4,-203 232.28,-156.62 254.64,-118.03"/>
<text xml:space="preserve" text-anchor="middle" x="241.52" y="-124.48" font-family="Arial" font-size="9.00">0..N</text>
<text xml:space="preserve" text-anchor="middle" x="156" y="-674.49" font-family="Arial" font-size="9.00">1</text>
</g>
<!-- allocation -->
<g id="node3" class="node">
<title>allocation</title>
<polygon fill="#e8f0fc" stroke="none" points="430.12,-756.2 430.12,-781.4 570.52,-781.4 570.52,-756.2 430.12,-756.2"/>
<text xml:space="preserve" text-anchor="start" x="448.67" y="-766.5" font-family="Arial" font-weight="bold" font-size="11.00">allocation · 공급 물량</text>
<text xml:space="preserve" text-anchor="start" x="436.12" y="-739.2" font-family="Arial" font-size="11.00">PK &#160;id</text>
<text xml:space="preserve" text-anchor="start" x="436.12" y="-714" font-family="Arial" font-size="11.00">FK &#160;unit_type_id</text>
<text xml:space="preserve" text-anchor="start" x="436.12" y="-688.8" font-family="Arial" font-size="11.00">FK &#160;last_source_record_id</text>
<polygon fill="none" stroke="#4f75a8" points="429.12,-679.6 429.12,-782.4 571.52,-782.4 571.52,-679.6 429.12,-679.6"/>
</g>
<!-- unit_type&#45;&gt;allocation -->
<g id="edge2" class="edge">
<title>unit_type&#45;&gt;allocation</title>
<path fill="none" stroke="#64748b" d="M356.29,-731C379.7,-731 405.79,-731 429.2,-731"/>
<text xml:space="preserve" text-anchor="middle" x="414.7" y="-721.54" font-family="Arial" font-size="9.00">0..N</text>
<text xml:space="preserve" text-anchor="middle" x="370.79" y="-735.06" font-family="Arial" font-size="9.00">1</text>
</g>
<!-- competition_snapshot -->
<g id="node4" class="node">
<title>competition_snapshot</title>
<polygon fill="#e8f0fc" stroke="none" points="415.79,-886.2 415.79,-911.4 584.86,-911.4 584.86,-886.2 415.79,-886.2"/>
<text xml:space="preserve" text-anchor="start" x="421.79" y="-896.5" font-family="Arial" font-weight="bold" font-size="11.00">competition_snapshot · 경쟁률</text>
<text xml:space="preserve" text-anchor="start" x="421.79" y="-869.2" font-family="Arial" font-size="11.00">PK &#160;id</text>
<text xml:space="preserve" text-anchor="start" x="421.79" y="-844" font-family="Arial" font-size="11.00">FK &#160;unit_type_id</text>
<text xml:space="preserve" text-anchor="start" x="421.79" y="-818.8" font-family="Arial" font-size="11.00">FK &#160;source_record_id</text>
<polygon fill="none" stroke="#4f75a8" points="414.79,-809.6 414.79,-912.4 585.86,-912.4 585.86,-809.6 414.79,-809.6"/>
</g>
<!-- unit_type&#45;&gt;competition_snapshot -->
<g id="edge3" class="edge">
<title>unit_type&#45;&gt;competition_snapshot</title>
<path fill="none" stroke="#64748b" d="M356.29,-773.75C375.09,-785.22 395.62,-797.74 415.1,-809.63"/>
<text xml:space="preserve" text-anchor="middle" x="406.24" y="-793.6" font-family="Arial" font-size="9.00">0..N</text>
<text xml:space="preserve" text-anchor="middle" x="365.15" y="-784.37" font-family="Arial" font-size="9.00">1</text>
</g>
<!-- winning_score_snapshot -->
<g id="node5" class="node">
<title>winning_score_snapshot</title>
<polygon fill="#e8f0fc" stroke="none" points="413.03,-1016.2 413.03,-1041.4 587.62,-1041.4 587.62,-1016.2 413.03,-1016.2"/>
<text xml:space="preserve" text-anchor="start" x="419.03" y="-1026.5" font-family="Arial" font-weight="bold" font-size="11.00">winning_score_snapshot · 가점</text>
<text xml:space="preserve" text-anchor="start" x="419.03" y="-999.2" font-family="Arial" font-size="11.00">PK &#160;id</text>
<text xml:space="preserve" text-anchor="start" x="419.03" y="-974" font-family="Arial" font-size="11.00">FK &#160;unit_type_id</text>
<text xml:space="preserve" text-anchor="start" x="419.03" y="-948.8" font-family="Arial" font-size="11.00">FK &#160;source_record_id</text>
<polygon fill="none" stroke="#4f75a8" points="412.03,-939.6 412.03,-1042.4 588.62,-1042.4 588.62,-939.6 412.03,-939.6"/>
</g>
<!-- unit_type&#45;&gt;winning_score_snapshot -->
<g id="edge4" class="edge">
<title>unit_type&#45;&gt;winning_score_snapshot</title>
<path fill="none" stroke="#64748b" d="M319.27,-782.23C356.55,-840.01 412.03,-926 412.03,-926 412.03,-926 419.72,-931.73 430.54,-939.78"/>
<text xml:space="preserve" text-anchor="middle" x="422.95" y="-923" font-family="Arial" font-size="9.00">0..N</text>
<text xml:space="preserve" text-anchor="middle" x="321.45" y="-795.38" font-family="Arial" font-size="9.00">1</text>
</g>
<!-- comparison_set -->
<g id="node12" class="node">
<title>comparison_set</title>
<polygon fill="#fff3db" stroke="none" points="427.69,-602.8 427.69,-628 572.96,-628 572.96,-602.8 427.69,-602.8"/>
<text xml:space="preserve" text-anchor="start" x="433.69" y="-613.1" font-family="Arial" font-weight="bold" font-size="11.00">comparison_set · 비교 1회</text>
<text xml:space="preserve" text-anchor="start" x="433.69" y="-585.8" font-family="Arial" font-size="11.00">PK &#160;id</text>
<text xml:space="preserve" text-anchor="start" x="433.69" y="-560.6" font-family="Arial" font-size="11.00">FK &#160;app_user_id</text>
<text xml:space="preserve" text-anchor="start" x="433.69" y="-535.4" font-family="Arial" font-size="11.00">FK &#160;unit_type_id</text>
<text xml:space="preserve" text-anchor="start" x="433.69" y="-510.2" font-family="Arial" font-size="11.00">FK &#160;region_code</text>
<polygon fill="none" stroke="#ae8a4c" points="426.69,-501 426.69,-629 573.96,-629 573.96,-501 426.69,-501"/>
</g>
<!-- unit_type&#45;&gt;comparison_set -->
<g id="edge13" class="edge">
<title>unit_type&#45;&gt;comparison_set</title>
<path fill="none" stroke="#64748b" d="M352.18,-679.61C375.9,-661.14 402.76,-640.21 426.99,-621.34"/>
<text xml:space="preserve" text-anchor="middle" x="411.4" y="-622.22" font-family="Arial" font-size="9.00">0..N</text>
<text xml:space="preserve" text-anchor="middle" x="367.78" y="-673.34" font-family="Arial" font-size="9.00">1</text>
</g>
<!-- region -->
<g id="node6" class="node">
<title>region</title>
<polygon fill="#e7f5f0" stroke="none" points="214.4,-395.2 214.4,-420.4 356.03,-420.4 356.03,-395.2 214.4,-395.2"/>
<text xml:space="preserve" text-anchor="start" x="237.84" y="-405.5" font-family="Arial" font-weight="bold" font-size="11.00">region · 법정동 지역</text>
<text xml:space="preserve" text-anchor="start" x="220.4" y="-378.2" font-family="Arial" font-size="11.00">PK &#160;region_code</text>
<text xml:space="preserve" text-anchor="start" x="220.4" y="-353" font-family="Arial" font-size="11.00">FK &#160;parent_code (nullable)</text>
<text xml:space="preserve" text-anchor="start" x="220.4" y="-327.8" font-family="Arial" font-size="11.00">FK &#160;last_source_record_id</text>
<polygon fill="none" stroke="#418b80" points="213.4,-318.6 213.4,-421.4 357.03,-421.4 357.03,-318.6 213.4,-318.6"/>
</g>
<!-- region&#45;&gt;region -->
<g id="edge5" class="edge">
<title>region&#45;&gt;region</title>
<path fill="none" stroke="#64748b" d="M266.63,-421.27C267.19,-436.53 273.38,-448.4 285.21,-448.4 297.04,-448.4 303.24,-436.53 303.79,-421.27"/>
<text xml:space="preserve" text-anchor="middle" x="285.21" y="-451.1" font-family="Arial" font-size="9.00">계층</text>
<text xml:space="preserve" text-anchor="middle" x="295.96" y="-432.53" font-family="Arial" font-size="9.00">0..N</text>
<text xml:space="preserve" text-anchor="middle" x="260.97" y="-433.54" font-family="Arial" font-size="9.00">0..1</text>
</g>
<!-- region&#45;&gt;address_match -->
<g id="edge7" class="edge">
<title>region&#45;&gt;address_match</title>
<path fill="none" stroke="#64748b" d="M356.88,-336.18C379.41,-325.39 404.37,-313.44 427.02,-302.6"/>
<text xml:space="preserve" text-anchor="middle" x="411.03" y="-300.06" font-family="Arial" font-size="9.00">0..N</text>
<text xml:space="preserve" text-anchor="middle" x="372.88" y="-333.32" font-family="Arial" font-size="9.00">0..1</text>
</g>
<!-- apartment_trade -->
<g id="node8" class="node">
<title>apartment_trade</title>
<polygon fill="#e7f5f0" stroke="none" points="425.25,-423.2 425.25,-448.4 575.4,-448.4 575.4,-423.2 425.25,-423.2"/>
<text xml:space="preserve" text-anchor="start" x="431.25" y="-433.5" font-family="Arial" font-weight="bold" font-size="11.00">apartment_trade · 매매 거래</text>
<text xml:space="preserve" text-anchor="start" x="431.25" y="-406.2" font-family="Arial" font-size="11.00">PK &#160;id</text>
<text xml:space="preserve" text-anchor="start" x="431.25" y="-381" font-family="Arial" font-size="11.00">FK &#160;region_code</text>
<text xml:space="preserve" text-anchor="start" x="431.25" y="-355.8" font-family="Arial" font-size="11.00">FK &#160;last_source_record_id</text>
<polygon fill="none" stroke="#418b80" points="424.25,-346.6 424.25,-449.4 576.4,-449.4 576.4,-346.6 424.25,-346.6"/>
</g>
<!-- region&#45;&gt;apartment_trade -->
<g id="edge8" class="edge">
<title>region&#45;&gt;apartment_trade</title>
<path fill="none" stroke="#64748b" d="M356.88,-379.28C378.57,-382.13 402.5,-385.28 424.46,-388.16"/>
<text xml:space="preserve" text-anchor="middle" x="410.96" y="-376.87" font-family="Arial" font-size="9.00">0..N</text>
<text xml:space="preserve" text-anchor="middle" x="370.37" y="-385.18" font-family="Arial" font-size="9.00">1</text>
</g>
<!-- region&#45;&gt;comparison_set -->
<g id="edge14" class="edge">
<title>region&#45;&gt;comparison_set</title>
<path fill="none" stroke="#64748b" d="M339.57,-421.31C373.86,-454.29 412.03,-491 412.03,-491 412.03,-491 418.01,-496.07 426.84,-503.55"/>
<text xml:space="preserve" text-anchor="middle" x="420.15" y="-486.32" font-family="Arial" font-size="9.00">0..N</text>
<text xml:space="preserve" text-anchor="middle" x="345.33" y="-433.54" font-family="Arial" font-size="9.00">1</text>
</g>
<!-- comparison_trade -->
<g id="node13" class="node">
<title>comparison_trade</title>
<polygon fill="#fff3db" stroke="none" points="644.62,-583.2 644.62,-608.4 803.93,-608.4 803.93,-583.2 644.62,-583.2"/>
<text xml:space="preserve" text-anchor="start" x="650.62" y="-593.5" font-family="Arial" font-weight="bold" font-size="11.00">comparison_trade · 포함 거래</text>
<text xml:space="preserve" text-anchor="start" x="650.62" y="-566.2" font-family="Arial" font-size="11.00">PK/FK &#160;comparison_set_id</text>
<text xml:space="preserve" text-anchor="start" x="650.62" y="-541" font-family="Arial" font-size="11.00">PK/FK &#160;apartment_trade_id</text>
<text xml:space="preserve" text-anchor="start" x="650.62" y="-515.8" font-family="Arial" font-size="11.00">FK &#160;source_record_id</text>
<polygon fill="none" stroke="#ae8a4c" points="643.62,-506.6 643.62,-609.4 804.93,-609.4 804.93,-506.6 643.62,-506.6"/>
</g>
<!-- apartment_trade&#45;&gt;comparison_trade -->
<g id="edge16" class="edge">
<title>apartment_trade&#45;&gt;comparison_trade</title>
<path fill="none" stroke="#ad8040" stroke-width="1.5" d="M572.46,-449.29C597.95,-467.66 626.67,-488.36 652.15,-506.73"/>
<text xml:space="preserve" text-anchor="middle" x="644.34" y="-490.07" font-family="Arial" font-size="9.00">0..N</text>
<text xml:space="preserve" text-anchor="middle" x="580.27" y="-460.55" font-family="Arial" font-size="9.00">1</text>
</g>
<!-- app_user -->
<g id="node9" class="node">
<title>app_user</title>
<polygon fill="#eef0fc" stroke="none" points="41.46,-86 41.46,-111.2 132.93,-111.2 132.93,-86 41.46,-86"/>
<text xml:space="preserve" text-anchor="start" x="47.46" y="-96.3" font-family="Arial" font-weight="bold" font-size="11.00">app_user · 회원</text>
<text xml:space="preserve" text-anchor="start" x="47.46" y="-69" font-family="Arial" font-size="11.00">PK &#160;id</text>
<polygon fill="none" stroke="#687cad" points="40.46,-59.8 40.46,-112.2 133.93,-112.2 133.93,-59.8 40.46,-59.8"/>
</g>
<!-- app_user&#45;&gt;watchlist -->
<g id="edge9" class="edge">
<title>app_user&#45;&gt;watchlist</title>
<path fill="none" stroke="#64748b" d="M133.66,-81.59C160.69,-78.97 195.29,-75.62 224.5,-72.79"/>
<text xml:space="preserve" text-anchor="middle" x="209.42" y="-64.76" font-family="Arial" font-size="9.00">0..N</text>
<text xml:space="preserve" text-anchor="middle" x="148.75" y="-84.22" font-family="Arial" font-size="9.00">1</text>
</g>
<!-- app_user&#45;&gt;comparison_set -->
<g id="edge12" class="edge">
<title>app_user&#45;&gt;comparison_set</title>
<path fill="none" stroke="#64748b" d="M95.8,-112.13C121.77,-201.43 205.4,-489 205.4,-489 205.4,-489 340.01,-523.81 427.04,-546.31"/>
<text xml:space="preserve" text-anchor="middle" x="414.7" y="-533.43" font-family="Arial" font-size="9.00">0..N</text>
<text xml:space="preserve" text-anchor="middle" x="93.35" y="-125.24" font-family="Arial" font-size="9.00">1</text>
</g>
<!-- user_note -->
<g id="node11" class="node">
<title>user_note</title>
<polygon fill="#eef0fc" stroke="none" points="442.06,-79.6 442.06,-104.8 558.58,-104.8 558.58,-79.6 442.06,-79.6"/>
<text xml:space="preserve" text-anchor="start" x="448.06" y="-89.9" font-family="Arial" font-weight="bold" font-size="11.00">user_note · 개인 노트</text>
<text xml:space="preserve" text-anchor="start" x="448.06" y="-62.6" font-family="Arial" font-size="11.00">PK &#160;id</text>
<text xml:space="preserve" text-anchor="start" x="448.06" y="-37.4" font-family="Arial" font-size="11.00">FK &#160;watchlist_id</text>
<polygon fill="none" stroke="#687cad" points="441.06,-28.2 441.06,-105.8 559.58,-105.8 559.58,-28.2 441.06,-28.2"/>
</g>
<!-- watchlist&#45;&gt;user_note -->
<g id="edge11" class="edge">
<title>watchlist&#45;&gt;user_note</title>
<path fill="none" stroke="#64748b" d="M345.86,-67C375.66,-67 411.57,-67 441.16,-67"/>
<text xml:space="preserve" text-anchor="middle" x="426.66" y="-57.54" font-family="Arial" font-size="9.00">0..N</text>
<text xml:space="preserve" text-anchor="middle" x="360.36" y="-71.06" font-family="Arial" font-size="9.00">1</text>
</g>
<!-- comparison_set&#45;&gt;comparison_trade -->
<g id="edge15" class="edge">
<title>comparison_set&#45;&gt;comparison_trade</title>
<path fill="none" stroke="#ad8040" stroke-width="1.5" d="M573.69,-562.72C596.08,-562.01 620.87,-561.23 643.72,-560.51"/>
<text xml:space="preserve" text-anchor="middle" x="629.01" y="-551.51" font-family="Arial" font-size="9.00">0..N</text>
<text xml:space="preserve" text-anchor="middle" x="588.4" y="-566.32" font-family="Arial" font-size="9.00">1</text>
</g>
<!-- ingestion_run -->
<g id="node14" class="node">
<title>ingestion_run</title>
<polygon fill="#f3eaf9" stroke="none" points="18.86,-587 18.86,-612.2 155.54,-612.2 155.54,-587 18.86,-587"/>
<text xml:space="preserve" text-anchor="start" x="24.86" y="-597.3" font-family="Arial" font-weight="bold" font-size="11.00">ingestion_run · 수집 실행</text>
<text xml:space="preserve" text-anchor="start" x="24.86" y="-570" font-family="Arial" font-size="11.00">PK &#160;id</text>
<polygon fill="none" stroke="#9871a9" points="17.86,-560.8 17.86,-613.2 156.54,-613.2 156.54,-560.8 17.86,-560.8"/>
</g>
<!-- source_record -->
<g id="node15" class="node">
<title>source_record</title>
<polygon fill="#f3eaf9" stroke="none" points="215.02,-599.6 215.02,-624.8 355.4,-624.8 355.4,-599.6 215.02,-599.6"/>
<text xml:space="preserve" text-anchor="start" x="221.02" y="-609.9" font-family="Arial" font-weight="bold" font-size="11.00">source_record · 원본 관측</text>
<text xml:space="preserve" text-anchor="start" x="221.02" y="-582.6" font-family="Arial" font-size="11.00">PK &#160;id</text>
<text xml:space="preserve" text-anchor="start" x="221.02" y="-557.4" font-family="Arial" font-size="11.00">FK &#160;ingestion_run_id</text>
<polygon fill="none" stroke="#9871a9" points="214.02,-548.2 214.02,-625.8 356.4,-625.8 356.4,-548.2 214.02,-548.2"/>
</g>
<!-- ingestion_run&#45;&gt;source_record -->
<g id="edge17" class="edge">
<title>ingestion_run&#45;&gt;source_record</title>
<path fill="none" stroke="#64748b" d="M156.48,-587C175.15,-587 195.41,-587 214.18,-587"/>
<text xml:space="preserve" text-anchor="middle" x="199.68" y="-577.54" font-family="Arial" font-size="9.00">0..N</text>
<text xml:space="preserve" text-anchor="middle" x="170.98" y="-591.06" font-family="Arial" font-size="9.00">1</text>
</g>
<!-- source_record&#45;&gt;announcement -->
<g id="edge18" class="edge">
<title>source_record&#45;&gt;announcement</title>
<path fill="none" stroke="#a894b2" stroke-dasharray="5,2" d="M226.73,-625.71C201.2,-642.9 171.21,-663.1 145.68,-680.29"/>
</g>
<!-- source_record&#45;&gt;unit_type -->
<g id="edge19" class="edge">
<title>source_record&#45;&gt;unit_type</title>
<path fill="none" stroke="#a894b2" stroke-dasharray="5,2" d="M285.21,-625.75C285.21,-631.2 285.21,-635 285.21,-635 285.21,-635 285.21,-669.17 285.21,-679.85"/>
</g>
<!-- source_record&#45;&gt;allocation -->
<g id="edge20" class="edge">
<title>source_record&#45;&gt;allocation</title>
<path fill="none" stroke="#a894b2" stroke-dasharray="5,2" d="M343.6,-625.78C369.98,-643.61 401.52,-664.91 429.28,-683.68"/>
</g>
<!-- source_record&#45;&gt;competition_snapshot -->
<g id="edge23" class="edge">
<title>source_record&#45;&gt;competition_snapshot</title>
<path fill="none" stroke="#a894b2" stroke-dasharray="5,2" d="M324.39,-625.57C344.24,-645.63 364.4,-666 364.4,-666 364.4,-666 412.03,-796 412.03,-796 412.03,-796 419.72,-801.73 430.54,-809.78"/>
</g>
<!-- source_record&#45;&gt;winning_score_snapshot -->
<g id="edge24" class="edge">
<title>source_record&#45;&gt;winning_score_snapshot</title>
<path fill="none" stroke="#a894b2" stroke-dasharray="5,2" d="M324.39,-625.57C344.24,-645.63 364.4,-666 364.4,-666 364.4,-666 412.03,-926 412.03,-926 412.03,-926 419.72,-931.73 430.54,-939.78"/>
</g>
<!-- source_record&#45;&gt;region -->
<g id="edge21" class="edge">
<title>source_record&#45;&gt;region</title>
<path fill="none" stroke="#a894b2" stroke-dasharray="5,2" d="M285.21,-548.29C285.21,-531.09 285.21,-514.67 285.21,-514.67 285.21,-514.67 285.21,-442.33 285.21,-442.33 285.21,-442.33 285.21,-432.99 285.21,-421.02"/>
</g>
<!-- source_record&#45;&gt;apartment_trade -->
<g id="edge22" class="edge">
<title>source_record&#45;&gt;apartment_trade</title>
<path fill="none" stroke="#a894b2" stroke-dasharray="5,2" d="M329.85,-548.3C362.12,-519.68 406.39,-480.42 441.58,-449.21"/>
</g>
<!-- source_record&#45;&gt;comparison_trade -->
<g id="edge25" class="edge">
<title>source_record&#45;&gt;comparison_trade</title>
<path fill="none" stroke="#a894b2" stroke-dasharray="5,2" d="M317.79,-548.23C339.49,-521.59 364.4,-491 364.4,-491 364.4,-491 412.03,-203 412.03,-203 412.03,-203 596.62,-203 596.62,-203 596.62,-203 669.92,-408.45 704.99,-506.76"/>
</g>
</g>
</svg>
